<?xml version="1.0" encoding="UTF-8" standalone="no"?>
<!-- Created with Inkscape (http://www.inkscape.org/) -->

<svg
   xmlns:dc="http://purl.org/dc/elements/1.1/"
   xmlns:cc="http://creativecommons.org/ns#"
   xmlns:rdf="http://www.w3.org/1999/02/22-rdf-syntax-ns#"
   xmlns:svg="http://www.w3.org/2000/svg"
   xmlns="http://www.w3.org/2000/svg"
   xmlns:sodipodi="http://sodipodi.sourceforge.net/DTD/sodipodi-0.dtd"
   xmlns:inkscape="http://www.inkscape.org/namespaces/inkscape"
   width="64mm"
   height="76.210716mm"
   viewBox="0 0 64 76.210716"
   version="1.1"
   id="svg8"
   inkscape:version="0.92.3 (2405546, 2018-03-11)"
   sodipodi:docname="blurb.svg">
  <defs
     id="defs2" />
  <sodipodi:namedview
     id="base"
     pagecolor="#ffffff"
     bordercolor="#666666"
     borderopacity="1.0"
     inkscape:pageopacity="0.0"
     inkscape:pageshadow="2"
     inkscape:zoom="1.4"
     inkscape:cx="-30.432864"
     inkscape:cy="117.7792"
     inkscape:document-units="mm"
     inkscape:current-layer="layer1"
     showgrid="false"
     inkscape:window-width="1920"
     inkscape:window-height="1027"
     inkscape:window-x="-8"
     inkscape:window-y="-8"
     inkscape:window-maximized="1"
     fit-margin-top="0"
     fit-margin-left="0"
     fit-margin-right="0"
     fit-margin-bottom="0" />
  <metadata
     id="metadata5">
    <rdf:RDF>
      <cc:Work
         rdf:about="">
        <dc:format>image/svg+xml</dc:format>
        <dc:type
           rdf:resource="http://purl.org/dc/dcmitype/StillImage" />
        <dc:title />
      </cc:Work>
    </rdf:RDF>
  </metadata>
  <g
     inkscape:label="Layer 1"
     inkscape:groupmode="layer"
     id="layer1"
     transform="translate(-72.999999,-124.21264)">
    <g
       id="g4773"
       transform="matrix(0.98746245,0,0,0.98746245,-22.784933,1.954952)">
      <path
         d="m 97.543692,149.82995 h 2.402954 q 0.341064,0 0.599444,-0.1602 0.25838,-0.16019 0.39791,-0.45475 0.1447,-0.29455 0.1447,-0.67696 v 0 q 0,-0.38757 -0.1447,-0.68213 -0.13953,-0.29455 -0.39791,-0.45475 -0.25838,-0.16537 -0.599444,-0.16537 h -2.402954 v -1.00252 h 2.36678 q 0.671798,0 1.183388,0.28939 0.5116,0.28422 0.79065,0.80615 0.28422,0.52193 0.28422,1.20923 v 0 q 0,0.6873 -0.28422,1.20923 -0.27905,0.51676 -0.79065,0.80098 -0.51159,0.28422 -1.183388,0.28422 h -2.36678 z m -0.542603,-3.59668 h 1.0542 v 7.51375 h -1.0542 z"
         style="font-style:normal;font-variant:normal;font-weight:normal;font-stretch:normal;font-size:10.58333302px;line-height:1;font-family:Bahnschrift;-inkscape-font-specification:Bahnschrift;text-align:center;letter-spacing:0px;word-spacing:0px;text-anchor:middle;fill:#000000;fill-opacity:1;stroke:none;stroke-width:0.26458332"
         id="path4538"
         inkscape:connector-curvature="0" />
      <path
         d="m 103.2436,148.38301 h 1.0542 v 5.36401 h -1.0542 z m 2.95073,1.27124 q -0.13953,-0.17053 -0.3514,-0.25838 -0.21188,-0.0879 -0.49093,-0.0879 -0.50126,0 -0.78031,0.27905 -0.27389,0.27389 -0.27389,0.76481 l -0.10852,-1.03353 q 0.24805,-0.48059 0.64079,-0.74414 0.39274,-0.26871 0.86816,-0.26871 0.36691,0 0.66146,0.10852 0.29972,0.10335 0.52193,0.31006 z"
         style="font-style:normal;font-variant:normal;font-weight:normal;font-stretch:normal;font-size:10.58333302px;line-height:1;font-family:Bahnschrift;-inkscape-font-specification:Bahnschrift;text-align:center;letter-spacing:0px;word-spacing:0px;text-anchor:middle;fill:#000000;fill-opacity:1;stroke:none;stroke-width:0.26458332"
         id="path4540"
         inkscape:connector-curvature="0" />
      <path
         d="m 109.72383,153.82454 q -0.69764,0 -1.19373,-0.27389 -0.49609,-0.27388 -0.75964,-0.79581 -0.25838,-0.5271 -0.25838,-1.26608 v -0.87333 q 0,-0.72863 0.25838,-1.2454 0.26355,-0.52193 0.75964,-0.79065 0.49609,-0.27388 1.19373,-0.27388 0.69763,0 1.19372,0.27388 0.4961,0.26872 0.75448,0.79065 0.26355,0.51677 0.26355,1.2454 v 0.88884 q 0,0.7338 -0.26355,1.25573 -0.25838,0.51677 -0.75448,0.79065 -0.49609,0.27389 -1.19372,0.27389 z m 0,-1.00252 q 0.55293,0 0.85266,-0.34624 0.30489,-0.34623 0.30489,-0.97151 v -0.88884 q 0,-0.62528 -0.30489,-0.96635 -0.29973,-0.34106 -0.85266,-0.34106 -0.55294,0 -0.85783,0.34106 -0.29973,0.34107 -0.29973,0.96635 v 0.88884 q 0,0.62528 0.29973,0.97151 0.30489,0.34624 0.85783,0.34624 z"
         style="font-style:normal;font-variant:normal;font-weight:normal;font-stretch:normal;font-size:10.58333302px;line-height:1;font-family:Bahnschrift;-inkscape-font-specification:Bahnschrift;text-align:center;letter-spacing:0px;word-spacing:0px;text-anchor:middle;fill:#000000;fill-opacity:1;stroke:none;stroke-width:0.26458332"
         id="path4542"
         inkscape:connector-curvature="0" />
      <path
         d="m 115.23253,155.92777 q -0.60461,0 -1.0852,-0.22738 -0.47542,-0.22221 -0.73897,-0.63045 v 0 l 0.71313,-0.64595 v 0 q 0.20671,0.28422 0.49093,0.43925 0.28938,0.15502 0.60461,0.15502 0.60461,0 0.93534,-0.33589 0.33073,-0.33073 0.33073,-0.94051 v -5.35885 h 1.0542 v 5.20382 q 0,0.73897 -0.27388,1.26607 -0.26872,0.5271 -0.78548,0.80098 -0.51677,0.27389 -1.24541,0.27389 z m -0.0982,-2.08773 q -0.58911,0 -1.00769,-0.25321 -0.41341,-0.25838 -0.63045,-0.74931 -0.21705,-0.49093 -0.21705,-1.17822 v -1.18339 q 0,-0.69247 0.21188,-1.18339 0.21187,-0.49093 0.61495,-0.74414 0.40824,-0.25839 0.97668,-0.25839 0.47542,0 0.86817,0.24805 0.3979,0.24805 0.64078,0.69763 l -0.10852,1.09554 q 0,-0.34106 -0.12402,-0.58394 -0.12402,-0.24288 -0.36174,-0.3669 -0.23254,-0.12919 -0.56844,-0.12919 -0.52193,0 -0.81132,0.32556 -0.28422,0.32556 -0.28422,0.91467 v 1.16789 q 0,0.58394 0.28422,0.90433 0.28939,0.31523 0.81132,0.31523 0.3359,0 0.56844,-0.12919 0.23772,-0.13436 0.36174,-0.38241 0.12402,-0.24804 0.12402,-0.59428 l 0.0724,1.13172 q -0.1602,0.39791 -0.5271,0.66662 -0.36173,0.26872 -0.894,0.26872 z"
         style="font-style:normal;font-variant:normal;font-weight:normal;font-stretch:normal;font-size:10.58333302px;line-height:1;font-family:Bahnschrift;-inkscape-font-specification:Bahnschrift;text-align:center;letter-spacing:0px;word-spacing:0px;text-anchor:middle;fill:#000000;fill-opacity:1;stroke:none;stroke-width:0.26458332"
         id="path4544"
         inkscape:connector-curvature="0" />
      <path
         d="m 119.13927,148.38301 h 1.0542 v 5.36401 h -1.0542 z m 2.95073,1.27124 q -0.13953,-0.17053 -0.3514,-0.25838 -0.21188,-0.0879 -0.49093,-0.0879 -0.50126,0 -0.78031,0.27905 -0.27389,0.27389 -0.27389,0.76481 l -0.10852,-1.03353 q 0.24805,-0.48059 0.64079,-0.74414 0.39274,-0.26871 0.86816,-0.26871 0.3669,0 0.66146,0.10852 0.29972,0.10335 0.52193,0.31006 z"
         style="font-style:normal;font-variant:normal;font-weight:normal;font-stretch:normal;font-size:10.58333302px;line-height:1;font-family:Bahnschrift;-inkscape-font-specification:Bahnschrift;text-align:center;letter-spacing:0px;word-spacing:0px;text-anchor:middle;fill:#000000;fill-opacity:1;stroke:none;stroke-width:0.26458332"
         id="path4546"
         inkscape:connector-curvature="0" />
      <path
         d="m 126.69437,150.34672 q 0,-0.5271 -0.28422,-0.81649 -0.27906,-0.29456 -0.79582,-0.29456 -0.3204,0 -0.63045,0.0982 -0.30489,0.0982 -0.54261,0.27388 l -0.76998,-0.5271 q 0.3049,-0.3669 0.80099,-0.56844 0.50126,-0.2067 1.11104,-0.2067 0.66663,0 1.14205,0.23771 0.47543,0.23254 0.72347,0.68213 0.24805,0.44441 0.24805,1.07487 v 3.44681 h -1.00252 z m -1.31259,3.47782 q -0.99218,0 -1.48311,-0.40824 -0.49092,-0.41342 -0.49092,-1.25057 0,-0.79582 0.44958,-1.19373 0.44958,-0.39791 1.35909,-0.39791 h 1.52445 l 0.0724,0.8475 h -1.59163 q -0.41341,0 -0.62012,0.18603 -0.20154,0.18087 -0.20154,0.55811 0,0.40824 0.26872,0.60461 0.27389,0.19637 0.82682,0.19637 0.60462,0 0.89917,-0.12919 0.29973,-0.12919 0.29973,-0.40308 l 0.10852,0.75448 q -0.13953,0.21704 -0.34624,0.35657 -0.20153,0.13952 -0.47025,0.2067 -0.26872,0.0724 -0.60462,0.0724 z"
         style="font-style:normal;font-variant:normal;font-weight:normal;font-stretch:normal;font-size:10.58333302px;line-height:1;font-family:Bahnschrift;-inkscape-font-specification:Bahnschrift;text-align:center;letter-spacing:0px;word-spacing:0px;text-anchor:middle;fill:#000000;fill-opacity:1;stroke:none;stroke-width:0.26458332"
         id="path4548"
         inkscape:connector-curvature="0" />
      <path
         d="m 135.71707,150.49658 q 0,-0.56844 -0.29455,-0.8785 -0.29456,-0.31006 -0.82683,-0.31006 -0.49092,0 -0.75964,0.29972 -0.26872,0.29973 -0.26872,0.8475 l -0.21187,-1.03353 q 0.25321,-0.53227 0.66662,-0.82166 0.41858,-0.29455 0.91984,-0.29455 0.57878,0 0.98702,0.25838 0.41342,0.25321 0.62529,0.74414 0.21704,0.49093 0.21704,1.18339 v 3.25561 h -1.0542 z m -6.40788,-2.11357 h 1.0542 v 5.36401 h -1.0542 z m 3.20394,2.11357 q 0,-0.56844 -0.27905,-0.8785 -0.27905,-0.31006 -0.79065,-0.31006 -0.51676,0 -0.80098,0.27388 -0.27906,0.27389 -0.27906,0.76998 l -0.10852,-1.03353 q 0.24805,-0.48575 0.64596,-0.7493 0.40307,-0.26355 0.88883,-0.26355 0.56328,0 0.96118,0.25838 0.39791,0.25321 0.60462,0.74414 0.21187,0.49093 0.21187,1.18339 v 3.25561 h -1.0542 z"
         style="font-style:normal;font-variant:normal;font-weight:normal;font-stretch:normal;font-size:10.58333302px;line-height:1;font-family:Bahnschrift;-inkscape-font-specification:Bahnschrift;text-align:center;letter-spacing:0px;word-spacing:0px;text-anchor:middle;fill:#000000;fill-opacity:1;stroke:none;stroke-width:0.26458332"
         id="path4550"
         inkscape:connector-curvature="0" />
      <path
         d="m 144.79145,150.49658 q 0,-0.56844 -0.29455,-0.8785 -0.29456,-0.31006 -0.82682,-0.31006 -0.49093,0 -0.75965,0.29972 -0.26872,0.29973 -0.26872,0.8475 l -0.21187,-1.03353 q 0.25322,-0.53227 0.66663,-0.82166 0.41858,-0.29455 0.91984,-0.29455 0.57877,0 0.98702,0.25838 0.41341,0.25321 0.62528,0.74414 0.21704,0.49093 0.21704,1.18339 v 3.25561 h -1.0542 z m -6.40787,-2.11357 h 1.0542 v 5.36401 h -1.0542 z m 3.20394,2.11357 q 0,-0.56844 -0.27906,-0.8785 -0.27905,-0.31006 -0.79065,-0.31006 -0.51676,0 -0.80098,0.27388 -0.27905,0.27389 -0.27905,0.76998 l -0.10852,-1.03353 q 0.24804,-0.48575 0.64595,-0.7493 0.40308,-0.26355 0.88884,-0.26355 0.56327,0 0.96118,0.25838 0.39791,0.25321 0.60461,0.74414 0.21187,0.49093 0.21187,1.18339 v 3.25561 h -1.05419 z"
         style="font-style:normal;font-variant:normal;font-weight:normal;font-stretch:normal;font-size:10.58333302px;line-height:1;font-family:Bahnschrift;-inkscape-font-specification:Bahnschrift;text-align:center;letter-spacing:0px;word-spacing:0px;text-anchor:middle;fill:#000000;fill-opacity:1;stroke:none;stroke-width:0.26458332"
         id="path4552"
         inkscape:connector-curvature="0" />
      <path
         d="m 149.6542,153.82454 q -0.74414,0 -1.27124,-0.27905 -0.5271,-0.27906 -0.80615,-0.81649 -0.27388,-0.5426 -0.27388,-1.30741 v -0.60462 q 0,-0.79582 0.26355,-1.35909 0.26871,-0.56327 0.77514,-0.85783 0.50643,-0.29455 1.21957,-0.29455 0.67179,0 1.14721,0.33589 0.47543,0.3359 0.72347,0.97152 0.25322,0.63562 0.25322,1.52445 v 0.3514 h -3.61735 v -0.84749 h 2.61482 v 0 q -0.0465,-0.65629 -0.34106,-1.01802 -0.28939,-0.36691 -0.78031,-0.36691 -0.59945,0 -0.93018,0.39274 -0.32556,0.39274 -0.32556,1.11105 v 0.68213 q 0,0.66662 0.3514,1.02319 0.3514,0.35657 0.99735,0.35657 0.3204,0 0.63562,-0.12919 0.31523,-0.1292 0.56328,-0.36174 v 0 l 0.69246,0.69246 v 0 q -0.39791,0.38241 -0.894,0.59428 -0.49609,0.20671 -0.99736,0.20671 z"
         style="font-style:normal;font-variant:normal;font-weight:normal;font-stretch:normal;font-size:10.58333302px;line-height:1;font-family:Bahnschrift;-inkscape-font-specification:Bahnschrift;text-align:center;letter-spacing:0px;word-spacing:0px;text-anchor:middle;fill:#000000;fill-opacity:1;stroke:none;stroke-width:0.26458332"
         id="path4554"
         inkscape:connector-curvature="0" />
      <path
         d="m 153.14237,148.38301 h 1.05419 v 5.36401 h -1.05419 z m 2.95072,1.27124 q -0.13953,-0.17053 -0.3514,-0.25838 -0.21187,-0.0879 -0.49093,-0.0879 -0.50126,0 -0.78031,0.27905 -0.27389,0.27389 -0.27389,0.76481 l -0.10852,-1.03353 q 0.24805,-0.48059 0.64079,-0.74414 0.39274,-0.26871 0.86817,-0.26871 0.3669,0 0.66145,0.10852 0.29973,0.10335 0.52194,0.31006 z"
         style="font-style:normal;font-variant:normal;font-weight:normal;font-stretch:normal;font-size:10.58333302px;line-height:1;font-family:Bahnschrift;-inkscape-font-specification:Bahnschrift;text-align:center;letter-spacing:0px;word-spacing:0px;text-anchor:middle;fill:#000000;fill-opacity:1;stroke:none;stroke-width:0.26458332"
         id="path4556"
         inkscape:connector-curvature="0" />
      <path
         d="m 159.56575,153.82454 q -0.47543,0 -0.89401,-0.093 -0.41341,-0.093 -0.77514,-0.27905 -0.36174,-0.18604 -0.66663,-0.46509 v 0 l 0.62529,-0.76998 v 0 q 0.43408,0.33073 0.86299,0.4961 0.42892,0.16536 0.8475,0.16536 0.62528,0 0.93534,-0.1912 0.31523,-0.19637 0.31523,-0.58395 0,-0.25838 -0.17054,-0.38757 -0.17053,-0.12919 -0.42374,-0.17053 -0.25322,-0.0465 -0.71314,-0.0827 -0.0413,0 -0.0879,0 -0.0465,-0.005 -0.0879,-0.0103 -0.0207,0 -0.0413,0 -0.0207,-0.005 -0.0413,-0.005 -0.52193,-0.0413 -0.88367,-0.14986 -0.36173,-0.11369 -0.60461,-0.41858 -0.23771,-0.30489 -0.23771,-0.87333 0,-0.56844 0.23254,-0.94568 0.23254,-0.37724 0.69247,-0.56327 0.45992,-0.1912 1.15238,-0.1912 0.41858,0 0.79582,0.0775 0.3824,0.0775 0.72863,0.23254 0.34624,0.14987 0.66663,0.38241 v 0 l -0.63562,0.76998 v 0 q -0.40308,-0.25838 -0.79582,-0.38757 -0.38757,-0.12919 -0.75964,-0.12919 -0.53744,0 -0.80615,0.18603 -0.26872,0.18087 -0.26872,0.54777 0,0.21704 0.14986,0.32556 0.15503,0.10852 0.38757,0.1447 0.23255,0.0362 0.66146,0.062 0.031,0.005 0.062,0.005 0.0362,0 0.0724,0.005 0.0155,0 0.031,0 0.0155,0 0.031,0.005 0.56328,0.0362 0.95602,0.14986 0.39791,0.11369 0.66662,0.44959 0.26872,0.33589 0.26872,0.97151 0,0.57878 -0.24805,0.96119 -0.24804,0.37723 -0.7493,0.56844 -0.4961,0.1912 -1.25057,0.1912 z"
         style="font-style:normal;font-variant:normal;font-weight:normal;font-stretch:normal;font-size:10.58333302px;line-height:1;font-family:Bahnschrift;-inkscape-font-specification:Bahnschrift;text-align:center;letter-spacing:0px;word-spacing:0px;text-anchor:middle;fill:#000000;fill-opacity:1;stroke:none;stroke-width:0.26458332"
         id="path4558"
         inkscape:connector-curvature="0" />
    </g>
    <path
       inkscape:connector-curvature="0"
       id="path4560"
       style="font-style:normal;font-variant:normal;font-weight:normal;font-stretch:normal;font-size:7.05555534px;line-height:1;font-family:Bahnschrift;-inkscape-font-specification:Bahnschrift;text-align:center;letter-spacing:0px;word-spacing:0px;text-anchor:middle;fill:#000000;fill-opacity:1;stroke:none;stroke-width:0.26458332"
       d="m 104.22312,160.5752 q -0.24115,-0.25149 -0.40997,-0.52365 -0.16881,-0.27216 -0.25838,-0.56155 -0.0896,-0.29283 -0.0896,-0.596 0,-0.65802 0.35141,-1.01631 0.3514,-0.36173 0.99218,-0.36173 0.63734,0 0.9853,0.34795 0.35141,0.34451 0.35141,0.97841 v 0.0689 h -0.7028 v -0.0689 q 0,-0.30661 -0.16537,-0.47198 -0.16536,-0.16881 -0.46853,-0.16881 -0.30661,0 -0.47542,0.18259 -0.16537,0.17915 -0.16537,0.50988 0,0.19981 0.0655,0.41341 0.0655,0.21359 0.19291,0.42375 0.12747,0.21015 0.30662,0.39963 l 2.29099,2.43568 h -0.89228 z m 0.33418,-0.21015 q -0.43064,0 -0.6649,0.2136 -0.23427,0.21359 -0.23427,0.60289 0,0.38241 0.24805,0.596 0.25149,0.21015 0.70624,0.21015 0.43064,0 0.73725,-0.23082 0.31006,-0.23082 0.46853,-0.66835 0.16192,-0.44097 0.16192,-1.06109 h 0.66835 q 0,0.81994 -0.25838,1.40216 -0.25494,0.57877 -0.74759,0.88539 -0.49265,0.30317 -1.18511,0.30317 -0.46853,0 -0.80271,-0.16881 -0.33073,-0.16881 -0.50643,-0.48921 -0.17225,-0.32384 -0.17225,-0.77859 0,-0.61323 0.33762,-0.98185 0.33762,-0.36863 0.95429,-0.42719 z" />
    <g
       id="g4760"
       transform="matrix(0.97003082,0,0,0.97003082,-20.50955,5.1721428)">
      <path
         d="m 101.25871,165.74887 h 0.88832 v 6.76237 h -0.92553 v -5.0648 l 0.0465,0.29765 -1.665012,3.82768 h -0.660425 l -1.665014,-3.73466 0.04651,-0.39067 v 5.0648 h -0.925524 v -6.76237 h 0.888317 l 1.985926,4.46484 z"
         style="font-style:normal;font-variant:normal;font-weight:normal;font-stretch:normal;font-size:9.52499962px;line-height:1;font-family:Bahnschrift;-inkscape-font-specification:Bahnschrift;text-align:center;letter-spacing:0px;word-spacing:0px;text-anchor:middle;fill:#000000;fill-opacity:1;stroke:none;stroke-width:0.26458332"
         id="path4562"
         inkscape:connector-curvature="0" />
      <path
         d="m 106.45374,169.45097 q 0,-0.47439 -0.2558,-0.73484 -0.25114,-0.2651 -0.71623,-0.2651 -0.28836,0 -0.56741,0.0884 -0.2744,0.0884 -0.48834,0.2465 l -0.69298,-0.47439 q 0.2744,-0.33021 0.72088,-0.5116 0.45114,-0.18603 0.99994,-0.18603 0.59997,0 1.02785,0.21394 0.42788,0.20929 0.65112,0.61392 0.22324,0.39997 0.22324,0.96738 v 3.10213 h -0.90227 z m -1.18132,3.13004 q -0.89297,0 -1.3348,-0.36742 -0.44184,-0.37207 -0.44184,-1.12551 0,-0.71624 0.40463,-1.07436 0.40463,-0.35811 1.22318,-0.35811 h 1.37201 l 0.0651,0.76274 h -1.43247 q -0.37207,0 -0.5581,0.16743 -0.18139,0.16278 -0.18139,0.5023 0,0.36742 0.24185,0.54415 0.24649,0.17673 0.74414,0.17673 0.54415,0 0.80925,-0.11627 0.26975,-0.11627 0.26975,-0.36277 l 0.0977,0.67903 q -0.12557,0.19534 -0.31161,0.32091 -0.18138,0.12557 -0.42323,0.18604 -0.24184,0.0651 -0.54415,0.0651 z"
         style="font-style:normal;font-variant:normal;font-weight:normal;font-stretch:normal;font-size:9.52499962px;line-height:1;font-family:Bahnschrift;-inkscape-font-specification:Bahnschrift;text-align:center;letter-spacing:0px;word-spacing:0px;text-anchor:middle;fill:#000000;fill-opacity:1;stroke:none;stroke-width:0.26458332"
         id="path4564"
         inkscape:connector-curvature="0" />
      <path
         d="m 110.06282,172.5345 q -0.58601,0 -0.86041,-0.32091 -0.26975,-0.32556 -0.26975,-0.95808 v -4.97644 h 0.94878 v 4.98574 q 0,0.17673 0.0698,0.2744 0.0698,0.093 0.20464,0.093 h 0.45579 v 0.90227 z m -1.6278,-4.85087 h 2.17661 v 0.85576 h -2.17661 z"
         style="font-style:normal;font-variant:normal;font-weight:normal;font-stretch:normal;font-size:9.52499962px;line-height:1;font-family:Bahnschrift;-inkscape-font-specification:Bahnschrift;text-align:center;letter-spacing:0px;word-spacing:0px;text-anchor:middle;fill:#000000;fill-opacity:1;stroke:none;stroke-width:0.26458332"
         id="path4566"
         inkscape:connector-curvature="0" />
      <path
         d="m 111.91387,165.74887 h 0.94878 v 6.76237 h -0.94878 z m 2.93006,3.83697 q 0,-0.51159 -0.2651,-0.79065 -0.2651,-0.27905 -0.74414,-0.27905 -0.46509,0 -0.72089,0.24185 -0.25115,0.24184 -0.25115,0.68367 l -0.0977,-0.93017 q 0.22325,-0.42788 0.58136,-0.66043 0.36277,-0.23719 0.79996,-0.23719 0.78599,0 1.21387,0.51625 0.43254,0.51159 0.43254,1.45107 v 2.93005 h -0.94878 z"
         style="font-style:normal;font-variant:normal;font-weight:normal;font-stretch:normal;font-size:9.52499962px;line-height:1;font-family:Bahnschrift;-inkscape-font-specification:Bahnschrift;text-align:center;letter-spacing:0px;word-spacing:0px;text-anchor:middle;fill:#000000;fill-opacity:1;stroke:none;stroke-width:0.26458332"
         id="path4568"
         inkscape:connector-curvature="0" />
      <path
         d="m 119.2111,172.58101 q -0.66972,0 -1.14411,-0.25115 -0.47439,-0.25115 -0.72554,-0.73484 -0.2465,-0.48834 -0.2465,-1.17667 v -0.54415 q 0,-0.71624 0.2372,-1.22318 0.24184,-0.50695 0.69763,-0.77205 0.45579,-0.2651 1.09761,-0.2651 0.60461,0 1.03249,0.30231 0.42788,0.3023 0.65113,0.87436 0.22789,0.57206 0.22789,1.37201 v 0.31626 h -3.25562 v -0.76274 h 2.35335 v 0 q -0.0419,-0.59067 -0.30696,-0.91623 -0.26045,-0.33021 -0.70228,-0.33021 -0.5395,0 -0.83716,0.35347 -0.29301,0.35346 -0.29301,0.99994 v 0.61391 q 0,0.59997 0.31626,0.92088 0.31626,0.32091 0.89762,0.32091 0.28836,0 0.57206,-0.11627 0.28371,-0.11628 0.50695,-0.32557 v 0 l 0.62322,0.62322 v 0 q -0.35812,0.34417 -0.80461,0.53485 -0.44648,0.18604 -0.89762,0.18604 z"
         style="font-style:normal;font-variant:normal;font-weight:normal;font-stretch:normal;font-size:9.52499962px;line-height:1;font-family:Bahnschrift;-inkscape-font-specification:Bahnschrift;text-align:center;letter-spacing:0px;word-spacing:0px;text-anchor:middle;fill:#000000;fill-opacity:1;stroke:none;stroke-width:0.26458332"
         id="path4570"
         inkscape:connector-curvature="0" />
      <path
         d="m 128.11754,169.58584 q 0,-0.51159 -0.2651,-0.79065 -0.2651,-0.27905 -0.74414,-0.27905 -0.44184,0 -0.68368,0.26975 -0.24185,0.26975 -0.24185,0.76274 l -0.19069,-0.93017 q 0.2279,-0.47904 0.59997,-0.73949 0.37672,-0.2651 0.82785,-0.2651 0.5209,0 0.88832,0.23254 0.37207,0.2279 0.56276,0.66973 0.19534,0.44183 0.19534,1.06505 v 2.93005 h -0.94878 z m -5.76709,-1.90221 h 0.94878 v 4.82761 h -0.94878 z m 2.88354,1.90221 q 0,-0.51159 -0.25115,-0.79065 -0.25114,-0.27905 -0.71158,-0.27905 -0.46509,0 -0.72089,0.2465 -0.25114,0.24649 -0.25114,0.69298 l -0.0977,-0.93018 q 0.22324,-0.43718 0.58136,-0.67438 0.36277,-0.23719 0.79995,-0.23719 0.50694,0 0.86506,0.23254 0.35812,0.2279 0.54415,0.66973 0.19069,0.44183 0.19069,1.06505 v 2.93005 h -0.94878 z"
         style="font-style:normal;font-variant:normal;font-weight:normal;font-stretch:normal;font-size:9.52499962px;line-height:1;font-family:Bahnschrift;-inkscape-font-specification:Bahnschrift;text-align:center;letter-spacing:0px;word-spacing:0px;text-anchor:middle;fill:#000000;fill-opacity:1;stroke:none;stroke-width:0.26458332"
         id="path4572"
         inkscape:connector-curvature="0" />
      <path
         d="m 133.2428,169.45097 q 0,-0.47439 -0.25579,-0.73484 -0.25115,-0.2651 -0.71624,-0.2651 -0.28835,0 -0.56741,0.0884 -0.2744,0.0884 -0.48834,0.2465 l -0.69298,-0.47439 q 0.2744,-0.33021 0.72089,-0.5116 0.45113,-0.18603 0.99994,-0.18603 0.59996,0 1.02784,0.21394 0.42788,0.20929 0.65112,0.61392 0.22324,0.39997 0.22324,0.96738 v 3.10213 h -0.90227 z m -1.18132,3.13004 q -0.89297,0 -1.3348,-0.36742 -0.44183,-0.37207 -0.44183,-1.12551 0,-0.71624 0.40462,-1.07436 0.40463,-0.35811 1.22318,-0.35811 h 1.37201 l 0.0651,0.76274 h -1.43247 q -0.37207,0 -0.5581,0.16743 -0.18139,0.16278 -0.18139,0.5023 0,0.36742 0.24185,0.54415 0.2465,0.17673 0.74414,0.17673 0.54415,0 0.80925,-0.11627 0.26975,-0.11627 0.26975,-0.36277 l 0.0977,0.67903 q -0.12557,0.19534 -0.31161,0.32091 -0.18138,0.12557 -0.42323,0.18604 -0.24184,0.0651 -0.54415,0.0651 z"
         style="font-style:normal;font-variant:normal;font-weight:normal;font-stretch:normal;font-size:9.52499962px;line-height:1;font-family:Bahnschrift;-inkscape-font-specification:Bahnschrift;text-align:center;letter-spacing:0px;word-spacing:0px;text-anchor:middle;fill:#000000;fill-opacity:1;stroke:none;stroke-width:0.26458332"
         id="path4574"
         inkscape:connector-curvature="0" />
      <path
         d="m 136.85188,172.5345 q -0.58601,0 -0.86041,-0.32091 -0.26975,-0.32556 -0.26975,-0.95808 v -4.97644 h 0.94878 v 4.98574 q 0,0.17673 0.0698,0.2744 0.0698,0.093 0.20464,0.093 h 0.45579 v 0.90227 z m -1.6278,-4.85087 h 2.17661 v 0.85576 h -2.17661 z"
         style="font-style:normal;font-variant:normal;font-weight:normal;font-stretch:normal;font-size:9.52499962px;line-height:1;font-family:Bahnschrift;-inkscape-font-specification:Bahnschrift;text-align:center;letter-spacing:0px;word-spacing:0px;text-anchor:middle;fill:#000000;fill-opacity:1;stroke:none;stroke-width:0.26458332"
         id="path4576"
         inkscape:connector-curvature="0" />
      <path
         d="m 138.70294,165.74887 h 0.94878 v 0.94878 h -0.94878 z m 0,1.93476 h 0.94878 v 4.82761 h -0.94878 z"
         style="font-style:normal;font-variant:normal;font-weight:normal;font-stretch:normal;font-size:9.52499962px;line-height:1;font-family:Bahnschrift;-inkscape-font-specification:Bahnschrift;text-align:center;letter-spacing:0px;word-spacing:0px;text-anchor:middle;fill:#000000;fill-opacity:1;stroke:none;stroke-width:0.26458332"
         id="path4578"
         inkscape:connector-curvature="0" />
      <path
         d="m 143.05151,172.58101 q -0.66043,0 -1.13017,-0.2465 -0.46508,-0.2465 -0.71158,-0.71623 -0.2465,-0.46974 -0.2465,-1.13482 v -0.7953 q 0,-0.65577 0.2465,-1.12086 0.2465,-0.46509 0.71158,-0.70693 0.46974,-0.2465 1.13017,-0.2465 0.37672,0 0.70693,0.093 0.33486,0.0884 0.59996,0.26045 0.2651,0.17208 0.44184,0.41858 v 0 l -0.68368,0.61391 v 0 q -0.20464,-0.23254 -0.47904,-0.35812 -0.2744,-0.12557 -0.57206,-0.12557 -0.5488,0 -0.85111,0.30696 -0.30231,0.30696 -0.30231,0.86506 v 0.7953 q 0,0.57206 0.29766,0.88367 0.30231,0.31161 0.85576,0.31161 0.30231,0 0.57671,-0.13488 0.2744,-0.13487 0.47439,-0.38137 v 0 l 0.68368,0.66042 v 0 q -0.18139,0.24185 -0.44649,0.41393 -0.2651,0.16743 -0.59996,0.2558 -0.33021,0.0884 -0.70228,0.0884 z"
         style="font-style:normal;font-variant:normal;font-weight:normal;font-stretch:normal;font-size:9.52499962px;line-height:1;font-family:Bahnschrift;-inkscape-font-specification:Bahnschrift;text-align:center;letter-spacing:0px;word-spacing:0px;text-anchor:middle;fill:#000000;fill-opacity:1;stroke:none;stroke-width:0.26458332"
         id="path4580"
         inkscape:connector-curvature="0" />
      <path
         d="m 145.84669,165.74887 h 0.94877 v 0.94878 h -0.94877 z m 0,1.93476 h 0.94877 v 4.82761 h -0.94877 z"
         style="font-style:normal;font-variant:normal;font-weight:normal;font-stretch:normal;font-size:9.52499962px;line-height:1;font-family:Bahnschrift;-inkscape-font-specification:Bahnschrift;text-align:center;letter-spacing:0px;word-spacing:0px;text-anchor:middle;fill:#000000;fill-opacity:1;stroke:none;stroke-width:0.26458332"
         id="path4582"
         inkscape:connector-curvature="0" />
      <path
         d="m 150.97195,169.45097 q 0,-0.47439 -0.2558,-0.73484 -0.25114,-0.2651 -0.71623,-0.2651 -0.28835,0 -0.56741,0.0884 -0.2744,0.0884 -0.48834,0.2465 l -0.69298,-0.47439 q 0.2744,-0.33021 0.72089,-0.5116 0.45113,-0.18603 0.99993,-0.18603 0.59997,0 1.02785,0.21394 0.42788,0.20929 0.65112,0.61392 0.22324,0.39997 0.22324,0.96738 v 3.10213 h -0.90227 z m -1.18132,3.13004 q -0.89297,0 -1.3348,-0.36742 -0.44184,-0.37207 -0.44184,-1.12551 0,-0.71624 0.40463,-1.07436 0.40463,-0.35811 1.22318,-0.35811 h 1.37201 l 0.0651,0.76274 h -1.43247 q -0.37207,0 -0.5581,0.16743 -0.18139,0.16278 -0.18139,0.5023 0,0.36742 0.24185,0.54415 0.2465,0.17673 0.74414,0.17673 0.54415,0 0.80925,-0.11627 0.26975,-0.11627 0.26975,-0.36277 l 0.0977,0.67903 q -0.12557,0.19534 -0.31161,0.32091 -0.18138,0.12557 -0.42323,0.18604 -0.24184,0.0651 -0.54415,0.0651 z"
         style="font-style:normal;font-variant:normal;font-weight:normal;font-stretch:normal;font-size:9.52499962px;line-height:1;font-family:Bahnschrift;-inkscape-font-specification:Bahnschrift;text-align:center;letter-spacing:0px;word-spacing:0px;text-anchor:middle;fill:#000000;fill-opacity:1;stroke:none;stroke-width:0.26458332"
         id="path4584"
         inkscape:connector-curvature="0" />
      <path
         d="m 153.3253,167.68363 h 0.94878 v 4.82761 h -0.94878 z m 2.93005,1.90221 q 0,-0.51159 -0.2651,-0.79065 -0.2651,-0.27905 -0.74414,-0.27905 -0.46508,0 -0.72088,0.2465 -0.25115,0.24649 -0.25115,0.69298 l -0.0977,-0.93018 q 0.22324,-0.43718 0.58136,-0.67438 0.36277,-0.23719 0.79995,-0.23719 0.786,0 1.21388,0.51625 0.43253,0.51159 0.43253,1.45107 v 2.93005 h -0.94878 z"
         style="font-style:normal;font-variant:normal;font-weight:normal;font-stretch:normal;font-size:9.52499962px;line-height:1;font-family:Bahnschrift;-inkscape-font-specification:Bahnschrift;text-align:center;letter-spacing:0px;word-spacing:0px;text-anchor:middle;fill:#000000;fill-opacity:1;stroke:none;stroke-width:0.26458332"
         id="path4586"
         inkscape:connector-curvature="0" />
      <path
         d="m 160.35278,172.58101 q -0.42789,0 -0.80461,-0.0837 -0.37207,-0.0837 -0.69763,-0.25115 -0.32556,-0.16743 -0.59996,-0.41857 v 0 l 0.56275,-0.69299 v 0 q 0.39068,0.29766 0.7767,0.44649 0.38602,0.14883 0.76275,0.14883 0.56275,0 0.8418,-0.17209 0.28371,-0.17673 0.28371,-0.52554 0,-0.23255 -0.15348,-0.34882 -0.15348,-0.11627 -0.38137,-0.15348 -0.2279,-0.0419 -0.64182,-0.0744 -0.0372,0 -0.0791,0 -0.0419,-0.005 -0.0791,-0.009 -0.0186,0 -0.0372,0 -0.0186,-0.005 -0.0372,-0.005 -0.46974,-0.0372 -0.7953,-0.13487 -0.32556,-0.10232 -0.54415,-0.37672 -0.21394,-0.2744 -0.21394,-0.786 0,-0.5116 0.20929,-0.85111 0.20929,-0.33952 0.62322,-0.50695 0.41392,-0.17208 1.03714,-0.17208 0.37672,0 0.71624,0.0698 0.34416,0.0698 0.65577,0.20929 0.31161,0.13488 0.59996,0.34417 v 0 l -0.57205,0.69298 v 0 q -0.36277,-0.23255 -0.71624,-0.34882 -0.34882,-0.11627 -0.68368,-0.11627 -0.48369,0 -0.72554,0.16743 -0.24184,0.16278 -0.24184,0.49299 0,0.19534 0.13487,0.29301 0.13953,0.0977 0.34882,0.13022 0.20929,0.0326 0.59531,0.0558 0.0279,0.005 0.0558,0.005 0.0326,0 0.0651,0.005 0.0139,0 0.0279,0 0.0139,0 0.0279,0.005 0.50694,0.0325 0.86041,0.13487 0.35812,0.10232 0.59996,0.40463 0.24185,0.30231 0.24185,0.87437 0,0.52089 -0.22324,0.86506 -0.22325,0.33951 -0.67438,0.5116 -0.44649,0.17208 -1.12551,0.17208 z"
         style="font-style:normal;font-variant:normal;font-weight:normal;font-stretch:normal;font-size:9.52499962px;line-height:1;font-family:Bahnschrift;-inkscape-font-specification:Bahnschrift;text-align:center;letter-spacing:0px;word-spacing:0px;text-anchor:middle;fill:#000000;fill-opacity:1;stroke:none;stroke-width:0.26458332"
         id="path4588"
         inkscape:connector-curvature="0" />
    </g>
    <g
       id="g4822"
       transform="translate(-24.20584)">
      <path
         d="m 120.8911,181.36945 q -0.42891,0 -0.7338,-0.16278 -0.30489,-0.16537 -0.46509,-0.47801 -0.1602,-0.31523 -0.1602,-0.75965 v -1.03094 q 0,-0.44442 0.1602,-0.75706 0.1602,-0.31523 0.46509,-0.48059 0.30489,-0.16537 0.7338,-0.16537 0.35399,0 0.63304,0.15245 0.27905,0.15245 0.45992,0.44442 0.18345,0.28939 0.25321,0.70021 v 0 h -0.7338 v 0 q -0.0413,-0.18603 -0.12919,-0.31781 -0.0853,-0.13177 -0.20929,-0.20153 -0.12144,-0.0698 -0.27389,-0.0698 -0.19895,0 -0.33848,0.0827 -0.13952,0.0801 -0.21445,0.23772 -0.0724,0.15503 -0.0724,0.37465 v 1.03094 q 0,0.21963 0.0724,0.37466 0.0749,0.15503 0.21445,0.23771 0.13953,0.0801 0.33848,0.0801 0.15503,0 0.27906,-0.0672 0.12402,-0.0698 0.20929,-0.20154 0.0853,-0.13177 0.12402,-0.32039 v 0 h 0.7338 v 0 q -0.0723,0.41083 -0.25579,0.7028 -0.18087,0.28939 -0.45992,0.44183 -0.27647,0.15245 -0.63046,0.15245 z"
         style="font-style:normal;font-variant:normal;font-weight:bold;font-stretch:normal;font-size:5.29166651px;line-height:1;font-family:Bahnschrift;-inkscape-font-specification:Bahnschrift;text-align:center;letter-spacing:0px;word-spacing:0px;text-anchor:middle;fill:#000000;fill-opacity:1;stroke:none;stroke-width:0.26458332"
         id="path4590"
         inkscape:connector-curvature="0" />
      <path
         d="m 122.83414,178.64868 h 0.75964 v 2.68201 h -0.75964 z m 1.50895,0.74673 q -0.0517,-0.0517 -0.12661,-0.0775 -0.0749,-0.0258 -0.17311,-0.0258 -0.21446,0 -0.33332,0.13953 -0.11627,0.13694 -0.11627,0.38241 l -0.0543,-0.69764 q 0.1111,-0.24029 0.2868,-0.37207 0.17829,-0.13436 0.39016,-0.13436 0.16795,0 0.30231,0.0543 0.13694,0.0517 0.23771,0.15502 z"
         style="font-style:normal;font-variant:normal;font-weight:bold;font-stretch:normal;font-size:5.29166651px;line-height:1;font-family:Bahnschrift;-inkscape-font-specification:Bahnschrift;text-align:center;letter-spacing:0px;word-spacing:0px;text-anchor:middle;fill:#000000;fill-opacity:1;stroke:none;stroke-width:0.26458332"
         id="path4592"
         inkscape:connector-curvature="0" />
      <path
         d="m 126.19569,181.36945 q -0.38757,0 -0.66404,-0.13953 -0.27389,-0.14211 -0.41858,-0.41083 -0.1447,-0.2713 -0.1447,-0.65112 v -0.30231 q 0,-0.39791 0.13695,-0.67954 0.13952,-0.28164 0.40307,-0.42892 0.26614,-0.14728 0.64079,-0.14728 0.3514,0 0.60203,0.1757 0.25063,0.1757 0.37982,0.5116 0.13178,0.33331 0.13178,0.80615 v 0.1757 h -1.83452 v -0.478 h 1.18856 l -0.008,-0.062 q -0.0284,-0.23254 -0.14728,-0.35915 -0.11627,-0.1266 -0.31264,-0.1266 -0.2558,0 -0.39791,0.15244 -0.13952,0.15245 -0.13952,0.4315 v 0.34106 q 0,0.27389 0.15244,0.42375 0.15503,0.14986 0.4315,0.14986 0.14211,0 0.28164,-0.0491 0.13952,-0.0517 0.25321,-0.14469 v 0 l 0.4625,0.41082 v 0 q -0.20929,0.19121 -0.47025,0.29714 -0.26097,0.10336 -0.5271,0.10336 z"
         style="font-style:normal;font-variant:normal;font-weight:bold;font-stretch:normal;font-size:5.29166651px;line-height:1;font-family:Bahnschrift;-inkscape-font-specification:Bahnschrift;text-align:center;letter-spacing:0px;word-spacing:0px;text-anchor:middle;fill:#000000;fill-opacity:1;stroke:none;stroke-width:0.26458332"
         id="path4594"
         inkscape:connector-curvature="0" />
      <path
         d="m 129.36345,179.63053 q 0,-0.18603 -0.12402,-0.2868 -0.12402,-0.10077 -0.3514,-0.10077 -0.14986,0 -0.29714,0.0491 -0.14728,0.0491 -0.26096,0.13695 l -0.43925,-0.4315 q 0.16019,-0.18345 0.42374,-0.28422 0.26355,-0.10336 0.58395,-0.10336 0.3514,0 0.59944,0.11886 0.24805,0.11627 0.37724,0.34106 0.13178,0.22221 0.13178,0.53744 v 1.72341 h -0.64338 z m -0.74672,1.73892 q -0.4315,0 -0.64596,-0.20413 -0.21187,-0.2067 -0.21187,-0.62528 0,-0.39791 0.23771,-0.59686 0.2403,-0.19896 0.7183,-0.19896 h 0.6718 l 0.0362,0.54002 h -0.70538 q -0.1602,0 -0.2403,0.0646 -0.0801,0.062 -0.0801,0.1912 0,0.13177 0.10077,0.19637 0.10077,0.062 0.30489,0.062 0.28422,0 0.42117,-0.0646 0.13952,-0.0646 0.13952,-0.20154 l 0.0543,0.39016 q -0.0155,0.14469 -0.13435,0.24546 -0.11628,0.10077 -0.29456,0.15244 -0.1757,0.0491 -0.37207,0.0491 z"
         style="font-style:normal;font-variant:normal;font-weight:bold;font-stretch:normal;font-size:5.29166651px;line-height:1;font-family:Bahnschrift;-inkscape-font-specification:Bahnschrift;text-align:center;letter-spacing:0px;word-spacing:0px;text-anchor:middle;fill:#000000;fill-opacity:1;stroke:none;stroke-width:0.26458332"
         id="path4596"
         inkscape:connector-curvature="0" />
      <path
         d="m 131.45893,181.34361 q -0.3514,0 -0.51676,-0.17829 -0.16278,-0.18086 -0.16278,-0.53226 v -2.76469 h 0.70797 v 2.58899 q 0,0.0982 0.0387,0.15244 0.0388,0.0517 0.11369,0.0517 h 0.1757 v 0.68213 z m -0.95601,-2.69493 h 1.31258 v 0.60462 h -1.31258 z"
         style="font-style:normal;font-variant:normal;font-weight:bold;font-stretch:normal;font-size:5.29166651px;line-height:1;font-family:Bahnschrift;-inkscape-font-specification:Bahnschrift;text-align:center;letter-spacing:0px;word-spacing:0px;text-anchor:middle;fill:#000000;fill-opacity:1;stroke:none;stroke-width:0.26458332"
         id="path4598"
         inkscape:connector-curvature="0" />
      <path
         d="m 132.39686,177.57381 h 0.70797 v 0.70797 h -0.70797 z m 0,1.07487 h 0.70797 v 2.68201 h -0.70797 z"
         style="font-style:normal;font-variant:normal;font-weight:bold;font-stretch:normal;font-size:5.29166651px;line-height:1;font-family:Bahnschrift;-inkscape-font-specification:Bahnschrift;text-align:center;letter-spacing:0px;word-spacing:0px;text-anchor:middle;fill:#000000;fill-opacity:1;stroke:none;stroke-width:0.26458332"
         id="path4600"
         inkscape:connector-curvature="0" />
      <path
         d="m 133.76887,178.64868 h 0.70797 v 2.68201 h -0.70797 z m 1.55029,1.05679 q 0,-0.19638 -0.11369,-0.3049 -0.1111,-0.10852 -0.31781,-0.10852 -0.19637,0 -0.30489,0.11111 -0.10593,0.10852 -0.10593,0.30747 l -0.0543,-0.59428 q 0.12144,-0.25321 0.28938,-0.37982 0.17054,-0.12661 0.42634,-0.12661 0.42374,0 0.65629,0.28681 0.23254,0.28422 0.23254,0.80615 v 1.62781 h -0.70797 z"
         style="font-style:normal;font-variant:normal;font-weight:bold;font-stretch:normal;font-size:5.29166651px;line-height:1;font-family:Bahnschrift;-inkscape-font-specification:Bahnschrift;text-align:center;letter-spacing:0px;word-spacing:0px;text-anchor:middle;fill:#000000;fill-opacity:1;stroke:none;stroke-width:0.26458332"
         id="path4602"
         inkscape:connector-curvature="0" />
      <path
         d="m 137.67561,182.42106 q -0.3204,0 -0.57361,-0.11369 -0.25063,-0.1111 -0.39016,-0.31522 v 0 l 0.47543,-0.43667 v 0 q 0.0904,0.0982 0.21704,0.14986 0.1266,0.0543 0.26355,0.0543 0.22221,0 0.36173,-0.12144 0.14211,-0.12144 0.14211,-0.33589 v -2.65359 h 0.70797 v 2.60191 q 0,0.36949 -0.14211,0.63304 -0.13953,0.26355 -0.41083,0.40049 -0.26872,0.13694 -0.65112,0.13694 z m -0.12661,-1.05161 q -0.28422,0 -0.48834,-0.13695 -0.20154,-0.13694 -0.30748,-0.39532 -0.10593,-0.26097 -0.10593,-0.62787 v -0.42891 q 0,-0.36949 0.10593,-0.63304 0.10594,-0.26355 0.30748,-0.40049 0.20412,-0.13695 0.48834,-0.13695 0.21446,0 0.39016,0.1292 0.17828,0.1266 0.2868,0.36173 l -0.0543,0.59428 q 0,-0.13694 -0.0465,-0.23254 -0.0465,-0.0956 -0.13694,-0.1447 -0.0879,-0.0517 -0.21446,-0.0517 -0.19895,0 -0.31006,0.13694 -0.10852,0.13436 -0.10852,0.37982 v 0.42633 q 0,0.2403 0.10852,0.37207 0.11111,0.13178 0.31006,0.13178 0.12661,0 0.21446,-0.0491 0.0904,-0.0491 0.13694,-0.14211 0.0465,-0.093 0.0465,-0.22479 l 0.0362,0.61237 q -0.0827,0.21962 -0.25322,0.34106 -0.17053,0.11886 -0.40566,0.11886 z"
         style="font-style:normal;font-variant:normal;font-weight:bold;font-stretch:normal;font-size:5.29166651px;line-height:1;font-family:Bahnschrift;-inkscape-font-specification:Bahnschrift;text-align:center;letter-spacing:0px;word-spacing:0px;text-anchor:middle;fill:#000000;fill-opacity:1;stroke:none;stroke-width:0.26458332"
         id="path4604"
         inkscape:connector-curvature="0" />
    </g>
    <g
       id="g4793"
       transform="matrix(0.96350425,0,0,0.96350425,-19.979653,6.9417492)">
      <path
         d="m 97.100307,189.4339 h 1.493104 q 0.587389,0 0.898136,-0.22359 0.314538,-0.22359 0.397909,-0.62907 v -0.0114 q 0.05684,-0.28043 0,-0.48128 -0.05684,-0.20085 -0.242535,-0.30696 -0.18569,-0.1099 -0.511596,-0.1099 H 97.45274 l 0.140215,-0.69729 h 1.682585 q 0.428225,0 0.685918,-0.20085 0.257692,-0.20084 0.337272,-0.59496 v 0 q 0.0796,-0.41307 -0.12126,-0.61771 -0.200853,-0.20464 -0.685923,-0.20464 h -1.576475 l 0.144005,-0.71623 h 1.716691 q 0.534332,0 0.856452,0.1819 0.3259,0.1819 0.4358,0.51538 0.1099,0.33349 0.0189,0.79582 v 0 q -0.0568,0.28422 -0.21601,0.53434 -0.15916,0.24632 -0.42064,0.42443 -0.26149,0.17432 -0.606339,0.23496 0.322119,0.0493 0.526759,0.23874 0.20842,0.18569 0.28043,0.46612 0.072,0.28043 0.008,0.60634 l -0.004,0.0114 q -0.0872,0.44717 -0.35244,0.78824 -0.26527,0.34106 -0.670757,0.52675 -0.405488,0.18569 -0.894347,0.18569 h -1.781114 z m 0.504017,-4.79385 h 0.76929 l -1.102775,5.51008 h -0.76929 z"
         style="font-style:italic;font-variant:normal;font-weight:normal;font-stretch:normal;font-size:7.76111126px;line-height:1;font-family:Bahnschrift;-inkscape-font-specification:Bahnschrift;text-align:center;letter-spacing:0px;word-spacing:0px;text-anchor:middle;fill:#000000;fill-opacity:1;stroke:none;stroke-width:0.26458332"
         id="path4606"
         inkscape:connector-curvature="0" />
      <path
         d="m 103.04241,190.20698 q -0.54571,0 -0.89056,-0.20464 -0.34485,-0.20464 -0.46991,-0.59876 -0.12506,-0.39791 -0.0114,-0.95877 l 0.0872,-0.44338 q 0.11748,-0.5836 0.39412,-0.99667 0.28043,-0.41307 0.6935,-0.62907 0.41685,-0.21601 0.93982,-0.21601 0.49265,0 0.79203,0.24632 0.29938,0.24633 0.38654,0.71245 0.0909,0.46612 -0.0379,1.11793 l -0.053,0.2577 h -2.65273 l 0.12506,-0.6215 h 1.91754 v 0 q 0.0644,-0.48128 -0.0985,-0.74655 -0.15916,-0.26906 -0.51918,-0.26906 -0.43959,0 -0.73897,0.28801 -0.29938,0.28801 -0.4017,0.81476 l -0.10232,0.50023 q -0.0985,0.48886 0.10611,0.75034 0.20843,0.26148 0.68213,0.26148 0.23496,0 0.48507,-0.0947 0.25012,-0.0947 0.46612,-0.26527 v 0 l 0.40549,0.50781 v 0 q -0.34864,0.28043 -0.74276,0.4358 -0.39412,0.15159 -0.76171,0.15159 z"
         style="font-style:italic;font-variant:normal;font-weight:normal;font-stretch:normal;font-size:7.76111126px;line-height:1;font-family:Bahnschrift;-inkscape-font-specification:Bahnschrift;text-align:center;letter-spacing:0px;word-spacing:0px;text-anchor:middle;fill:#000000;fill-opacity:1;stroke:none;stroke-width:0.26458332"
         id="path4608"
         inkscape:connector-curvature="0" />
      <path
         d="m 108.3327,187.65657 q 0.0758,-0.38654 -0.0872,-0.59875 -0.16296,-0.21601 -0.54192,-0.21601 -0.23495,0 -0.47749,0.072 -0.23874,0.072 -0.43959,0.20085 l -0.48507,-0.38654 q 0.27664,-0.26906 0.67076,-0.41686 0.39791,-0.15158 0.84508,-0.15158 0.48886,0 0.79961,0.17432 0.31453,0.17053 0.43201,0.50023 0.11748,0.3259 0.0227,0.78824 l -0.50402,2.52766 h -0.73518 z m -1.47416,2.55041 q -0.7276,0 -1.02698,-0.29938 -0.29938,-0.30317 -0.17811,-0.91709 0.11747,-0.5836 0.50401,-0.87539 0.39033,-0.2918 1.0573,-0.2918 h 1.11794 l -0.072,0.62149 h -1.16719 q -0.30317,0 -0.48128,0.13643 -0.17433,0.13263 -0.23117,0.40927 -0.0606,0.29938 0.1099,0.44339 0.17053,0.144 0.57602,0.144 0.44338,0 0.67834,-0.0947 0.23874,-0.0947 0.28043,-0.29559 l -0.0303,0.55329 q -0.13642,0.15916 -0.30696,0.26148 -0.17053,0.10232 -0.37896,0.15158 -0.20464,0.0531 -0.45096,0.0531 z"
         style="font-style:italic;font-variant:normal;font-weight:normal;font-stretch:normal;font-size:7.76111126px;line-height:1;font-family:Bahnschrift;-inkscape-font-specification:Bahnschrift;text-align:center;letter-spacing:0px;word-spacing:0px;text-anchor:middle;fill:#000000;fill-opacity:1;stroke:none;stroke-width:0.26458332"
         id="path4610"
         inkscape:connector-curvature="0" />
      <path
         d="m 112.91054,186.21652 h 0.76929 l -0.78824,3.93361 h -0.76929 z m -2.08049,2.39124 q -0.0796,0.41307 0.0834,0.64045 0.16674,0.22358 0.54949,0.22358 0.37896,0 0.62528,-0.20085 0.25012,-0.20084 0.32591,-0.57223 l -0.11369,0.82235 q -0.17811,0.2918 -0.49265,0.48886 -0.31074,0.19706 -0.70865,0.19706 -0.65181,0 -0.92467,-0.41686 -0.26906,-0.42065 -0.11747,-1.18236 l 0.48128,-2.39124 h 0.77308 z"
         style="font-style:italic;font-variant:normal;font-weight:normal;font-stretch:normal;font-size:7.76111126px;line-height:1;font-family:Bahnschrift;-inkscape-font-specification:Bahnschrift;text-align:center;letter-spacing:0px;word-spacing:0px;text-anchor:middle;fill:#000000;fill-opacity:1;stroke:none;stroke-width:0.26458332"
         id="path4612"
         inkscape:connector-curvature="0" />
      <path
         d="m 115.08956,190.16908 q -0.47749,0 -0.64802,-0.26148 -0.16674,-0.26527 -0.0644,-0.78066 l 0.81097,-4.05488 h 0.77308 l -0.81097,4.06246 q -0.0303,0.144 0.0114,0.22359 0.0417,0.0758 0.15159,0.0758 h 0.37138 l -0.14779,0.73518 z m -0.53433,-3.95256 h 1.77353 l -0.14021,0.69729 h -1.77354 z"
         style="font-style:italic;font-variant:normal;font-weight:normal;font-stretch:normal;font-size:7.76111126px;line-height:1;font-family:Bahnschrift;-inkscape-font-specification:Bahnschrift;text-align:center;letter-spacing:0px;word-spacing:0px;text-anchor:middle;fill:#000000;fill-opacity:1;stroke:none;stroke-width:0.26458332"
         id="path4614"
         inkscape:connector-curvature="0" />
      <path
         d="m 117.70439,184.64005 h 0.77308 l -0.15537,0.77308 h -0.77308 z m -0.31454,1.57647 h 0.77308 l -0.78824,3.93361 h -0.77308 z"
         style="font-style:italic;font-variant:normal;font-weight:normal;font-stretch:normal;font-size:7.76111126px;line-height:1;font-family:Bahnschrift;-inkscape-font-specification:Bahnschrift;text-align:center;letter-spacing:0px;word-spacing:0px;text-anchor:middle;fill:#000000;fill-opacity:1;stroke:none;stroke-width:0.26458332"
         id="path4616"
         inkscape:connector-curvature="0" />
      <path
         d="m 119.56509,185.68219 q 0.10232,-0.52297 0.39412,-0.78066 0.29558,-0.26148 0.79581,-0.26148 h 0.56844 l -0.14779,0.73518 h -0.55328 q -0.1099,0 -0.18569,0.0834 -0.072,0.0834 -0.0985,0.21601 l -0.89435,4.47552 h -0.77308 z m -0.52297,0.53433 h 1.96681 l -0.13264,0.65939 h -1.96681 z"
         style="font-style:italic;font-variant:normal;font-weight:normal;font-stretch:normal;font-size:7.76111126px;line-height:1;font-family:Bahnschrift;-inkscape-font-specification:Bahnschrift;text-align:center;letter-spacing:0px;word-spacing:0px;text-anchor:middle;fill:#000000;fill-opacity:1;stroke:none;stroke-width:0.26458332"
         id="path4618"
         inkscape:connector-curvature="0" />
      <path
         d="m 124.02166,186.21652 h 0.76929 l -0.78824,3.93361 h -0.76929 z m -2.08049,2.39124 q -0.0796,0.41307 0.0834,0.64045 0.16674,0.22358 0.54949,0.22358 0.37896,0 0.62529,-0.20085 0.25011,-0.20084 0.3259,-0.57223 l -0.11369,0.82235 q -0.17811,0.2918 -0.49264,0.48886 -0.31075,0.19706 -0.70866,0.19706 -0.65181,0 -0.92466,-0.41686 -0.26907,-0.42065 -0.11748,-1.18236 l 0.48128,-2.39124 h 0.77308 z"
         style="font-style:italic;font-variant:normal;font-weight:normal;font-stretch:normal;font-size:7.76111126px;line-height:1;font-family:Bahnschrift;-inkscape-font-specification:Bahnschrift;text-align:center;letter-spacing:0px;word-spacing:0px;text-anchor:middle;fill:#000000;fill-opacity:1;stroke:none;stroke-width:0.26458332"
         id="path4620"
         inkscape:connector-curvature="0" />
      <path
         d="m 126.159,189.13452 q -0.0303,0.144 0.0152,0.22359 0.0493,0.0758 0.16295,0.0758 h 0.3638 l -0.14779,0.73518 h -0.45475 q -0.4396,0 -0.62529,-0.27285 -0.18569,-0.27285 -0.0872,-0.76929 l 0.89814,-4.48689 h 0.77308 z"
         style="font-style:italic;font-variant:normal;font-weight:normal;font-stretch:normal;font-size:7.76111126px;line-height:1;font-family:Bahnschrift;-inkscape-font-specification:Bahnschrift;text-align:center;letter-spacing:0px;word-spacing:0px;text-anchor:middle;fill:#000000;fill-opacity:1;stroke:none;stroke-width:0.26458332"
         id="path4622"
         inkscape:connector-curvature="0" />
      <path
         d="m 131.21433,187.95974 q -0.21222,-0.27664 -0.33727,-0.57602 -0.12506,-0.29938 -0.15917,-0.6177 -0.0341,-0.32212 0.0303,-0.65561 0.14401,-0.72381 0.61013,-1.11793 0.46612,-0.39791 1.17098,-0.39791 0.70108,0 1.00804,0.38275 0.31075,0.37896 0.17053,1.07625 l -0.0152,0.0758 h -0.77308 l 0.0152,-0.0758 q 0.0682,-0.33727 -0.0796,-0.51918 -0.144,-0.18569 -0.47749,-0.18569 -0.33727,0 -0.56086,0.20085 -0.22359,0.19706 -0.29559,0.56086 -0.0417,0.2198 -0.0189,0.45476 0.0265,0.23495 0.11748,0.46612 0.0947,0.23116 0.25011,0.43959 l 1.98576,2.67925 h -0.98151 z m 0.41307,-0.23116 q -0.4737,0 -0.78066,0.23495 -0.30317,0.23496 -0.39033,0.66318 -0.0834,0.42065 0.14401,0.6556 0.23116,0.23117 0.73139,0.23117 0.4737,0 0.86024,-0.2539 0.39033,-0.25391 0.66318,-0.73519 0.27285,-0.48507 0.40928,-1.1672 h 0.73518 q -0.17811,0.90193 -0.59118,1.54237 -0.40927,0.63666 -1.0194,0.97393 -0.60634,0.33349 -1.36805,0.33349 -0.51538,0 -0.84508,-0.18569 -0.32591,-0.18569 -0.44717,-0.53813 -0.12127,-0.35622 -0.0227,-0.85645 0.13642,-0.67455 0.58739,-1.08004 0.45475,-0.40548 1.14446,-0.46991 z"
         style="font-style:italic;font-variant:normal;font-weight:normal;font-stretch:normal;font-size:7.76111126px;line-height:1;font-family:Bahnschrift;-inkscape-font-specification:Bahnschrift;text-align:center;letter-spacing:0px;word-spacing:0px;text-anchor:middle;fill:#000000;fill-opacity:1;stroke:none;stroke-width:0.26458332"
         id="path4624"
         inkscape:connector-curvature="0" />
      <path
         d="m 137.84993,184.64005 h 0.77308 l -1.10278,5.51008 h -0.77308 z m -0.57981,4.7749 h 3.16432 l -0.14779,0.73518 h -3.16432 z m 0.4737,-2.3685 h 2.74746 l -0.14779,0.73518 h -2.74746 z m 0.48128,-2.4064 h 3.16432 l -0.14779,0.73518 h -3.16432 z"
         style="font-style:italic;font-variant:normal;font-weight:normal;font-stretch:normal;font-size:7.76111126px;line-height:1;font-family:Bahnschrift;-inkscape-font-specification:Bahnschrift;text-align:center;letter-spacing:0px;word-spacing:0px;text-anchor:middle;fill:#000000;fill-opacity:1;stroke:none;stroke-width:0.26458332"
         id="path4626"
         inkscape:connector-curvature="0" />
      <path
         d="m 142.31787,185.68219 q 0.10232,-0.52297 0.39412,-0.78066 0.29559,-0.26148 0.79582,-0.26148 h 0.56844 l -0.14779,0.73518 h -0.55329 q -0.10989,0 -0.18569,0.0834 -0.072,0.0834 -0.0985,0.21601 l -0.89434,4.47552 h -0.77308 z m -0.52296,0.53433 h 1.9668 l -0.13263,0.65939 h -1.96681 z"
         style="font-style:italic;font-variant:normal;font-weight:normal;font-stretch:normal;font-size:7.76111126px;line-height:1;font-family:Bahnschrift;-inkscape-font-specification:Bahnschrift;text-align:center;letter-spacing:0px;word-spacing:0px;text-anchor:middle;fill:#000000;fill-opacity:1;stroke:none;stroke-width:0.26458332"
         id="path4628"
         inkscape:connector-curvature="0" />
      <path
         d="m 144.77354,185.68219 q 0.10232,-0.52297 0.39412,-0.78066 0.29559,-0.26148 0.79582,-0.26148 h 0.56844 l -0.1478,0.73518 h -0.55328 q -0.1099,0 -0.18569,0.0834 -0.072,0.0834 -0.0985,0.21601 l -0.89435,4.47552 h -0.77308 z m -0.52297,0.53433 h 1.96681 l -0.13264,0.65939 h -1.9668 z"
         style="font-style:italic;font-variant:normal;font-weight:normal;font-stretch:normal;font-size:7.76111126px;line-height:1;font-family:Bahnschrift;-inkscape-font-specification:Bahnschrift;text-align:center;letter-spacing:0px;word-spacing:0px;text-anchor:middle;fill:#000000;fill-opacity:1;stroke:none;stroke-width:0.26458332"
         id="path4630"
         inkscape:connector-curvature="0" />
      <path
         d="m 147.44521,184.64005 h 0.77308 l -0.15537,0.77308 h -0.77308 z m -0.31454,1.57647 h 0.77308 l -0.78823,3.93361 h -0.77308 z"
         style="font-style:italic;font-variant:normal;font-weight:normal;font-stretch:normal;font-size:7.76111126px;line-height:1;font-family:Bahnschrift;-inkscape-font-specification:Bahnschrift;text-align:center;letter-spacing:0px;word-spacing:0px;text-anchor:middle;fill:#000000;fill-opacity:1;stroke:none;stroke-width:0.26458332"
         id="path4632"
         inkscape:connector-curvature="0" />
      <path
         d="m 149.87435,190.20698 q -0.53813,0 -0.87919,-0.20085 -0.34106,-0.20085 -0.46612,-0.5836 -0.12127,-0.38275 -0.0152,-0.92466 l 0.12885,-0.64803 q 0.1099,-0.53433 0.38654,-0.91329 0.27664,-0.37896 0.69728,-0.57602 0.42065,-0.20085 0.95877,-0.20085 0.30696,0 0.56087,0.0758 0.25769,0.072 0.44338,0.21222 0.18948,0.14021 0.2918,0.34106 v 0 l -0.6556,0.50023 v 0 q -0.12885,-0.18948 -0.33349,-0.2918 -0.20085,-0.10232 -0.44338,-0.10232 -0.44717,0 -0.74655,0.25012 -0.29559,0.25011 -0.38654,0.70486 l -0.12885,0.64803 q -0.0909,0.46612 0.10232,0.72002 0.19327,0.2539 0.64423,0.2539 0.24633,0 0.48886,-0.10989 0.24633,-0.1099 0.45096,-0.31075 v 0 l 0.45097,0.53812 v 0 q -0.18948,0.19706 -0.43202,0.33728 -0.24253,0.13642 -0.53054,0.20842 -0.28422,0.072 -0.58739,0.072 z"
         style="font-style:italic;font-variant:normal;font-weight:normal;font-stretch:normal;font-size:7.76111126px;line-height:1;font-family:Bahnschrift;-inkscape-font-specification:Bahnschrift;text-align:center;letter-spacing:0px;word-spacing:0px;text-anchor:middle;fill:#000000;fill-opacity:1;stroke:none;stroke-width:0.26458332"
         id="path4634"
         inkscape:connector-curvature="0" />
      <path
         d="m 153.76248,190.20698 q -0.5457,0 -0.89056,-0.20464 -0.34485,-0.20464 -0.46991,-0.59876 -0.12505,-0.39791 -0.0114,-0.95877 l 0.0872,-0.44338 q 0.11748,-0.5836 0.39412,-0.99667 0.28043,-0.41307 0.6935,-0.62907 0.41686,-0.21601 0.93982,-0.21601 0.49265,0 0.79203,0.24632 0.29938,0.24633 0.38654,0.71245 0.0909,0.46612 -0.0379,1.11793 l -0.053,0.2577 h -2.65272 l 0.12505,-0.6215 h 1.91754 v 0 q 0.0644,-0.48128 -0.0985,-0.74655 -0.15916,-0.26906 -0.51917,-0.26906 -0.4396,0 -0.73897,0.28801 -0.29938,0.28801 -0.4017,0.81476 l -0.10232,0.50023 q -0.0985,0.48886 0.10611,0.75034 0.20842,0.26148 0.68213,0.26148 0.23495,0 0.48506,-0.0947 0.25012,-0.0947 0.46613,-0.26527 v 0 l 0.40548,0.50781 v 0 q -0.34864,0.28043 -0.74276,0.4358 -0.39412,0.15159 -0.76171,0.15159 z"
         style="font-style:italic;font-variant:normal;font-weight:normal;font-stretch:normal;font-size:7.76111126px;line-height:1;font-family:Bahnschrift;-inkscape-font-specification:Bahnschrift;text-align:center;letter-spacing:0px;word-spacing:0px;text-anchor:middle;fill:#000000;fill-opacity:1;stroke:none;stroke-width:0.26458332"
         id="path4636"
         inkscape:connector-curvature="0" />
      <path
         d="m 157.12007,186.21652 h 0.77308 l -0.78824,3.93361 h -0.77307 z m 2.07671,1.54995 q 0.0834,-0.41686 -0.0872,-0.64423 -0.17054,-0.22738 -0.56087,-0.22738 -0.37896,0 -0.62528,0.20085 -0.24632,0.20085 -0.32212,0.56465 l 0.072,-0.75792 q 0.2539,-0.35622 0.58738,-0.54949 0.33349,-0.19327 0.68971,-0.19327 0.64045,0 0.90572,0.42065 0.26527,0.41685 0.11369,1.18235 l -0.47749,2.38745 h -0.77308 z"
         style="font-style:italic;font-variant:normal;font-weight:normal;font-stretch:normal;font-size:7.76111126px;line-height:1;font-family:Bahnschrift;-inkscape-font-specification:Bahnschrift;text-align:center;letter-spacing:0px;word-spacing:0px;text-anchor:middle;fill:#000000;fill-opacity:1;stroke:none;stroke-width:0.26458332"
         id="path4638"
         inkscape:connector-curvature="0" />
      <path
         d="m 161.68655,190.16908 q -0.47749,0 -0.64803,-0.26148 -0.16674,-0.26527 -0.0644,-0.78066 l 0.81098,-4.05488 h 0.77308 l -0.81098,4.06246 q -0.0303,0.144 0.0114,0.22359 0.0417,0.0758 0.15158,0.0758 h 0.37139 l -0.1478,0.73518 z m -0.53434,-3.95256 h 1.77354 l -0.14022,0.69729 H 161.012 Z"
         style="font-style:italic;font-variant:normal;font-weight:normal;font-stretch:normal;font-size:7.76111126px;line-height:1;font-family:Bahnschrift;-inkscape-font-specification:Bahnschrift;text-align:center;letter-spacing:0px;word-spacing:0px;text-anchor:middle;fill:#000000;fill-opacity:1;stroke:none;stroke-width:0.26458332"
         id="path4640"
         inkscape:connector-curvature="0" />
    </g>
    <g
       id="g4812"
       transform="matrix(1.0766885,0,0,1.0766885,-34.259021,-15.370171)">
      <path
         d="m 99.619362,193.96041 h 0.702798 v 5.00917 h -0.702798 z m 0.344509,2.23242 h 2.428789 v 0.66835 h -2.428789 z m 0,-2.23242 h 2.807749 v 0.66835 h -2.807749 z"
         style="font-style:normal;font-variant:normal;font-weight:normal;font-stretch:normal;font-size:7.05555534px;line-height:1;font-family:Bahnschrift;-inkscape-font-specification:Bahnschrift;text-align:center;letter-spacing:0px;word-spacing:0px;text-anchor:middle;fill:#000000;fill-opacity:1;stroke:none;stroke-width:0.26458332"
         id="path4642"
         inkscape:connector-curvature="0" />
      <path
         d="m 103.49165,195.39357 h 0.7028 v 3.57601 h -0.7028 z m 1.96715,0.84749 q -0.093,-0.11369 -0.23427,-0.17225 -0.14125,-0.0586 -0.32728,-0.0586 -0.33418,0 -0.52021,0.18604 -0.18259,0.18259 -0.18259,0.50987 l -0.0724,-0.68902 q 0.16537,-0.32039 0.42719,-0.49609 0.26183,-0.17915 0.57878,-0.17915 0.2446,0 0.44097,0.0724 0.19982,0.0689 0.34796,0.2067 z"
         style="font-style:normal;font-variant:normal;font-weight:normal;font-stretch:normal;font-size:7.05555534px;line-height:1;font-family:Bahnschrift;-inkscape-font-specification:Bahnschrift;text-align:center;letter-spacing:0px;word-spacing:0px;text-anchor:middle;fill:#000000;fill-opacity:1;stroke:none;stroke-width:0.26458332"
         id="path4644"
         inkscape:connector-curvature="0" />
      <path
         d="m 107.8118,199.02125 q -0.46509,0 -0.79582,-0.18259 -0.33073,-0.18259 -0.50643,-0.53054 -0.17225,-0.3514 -0.17225,-0.84405 v -0.58222 q 0,-0.48576 0.17225,-0.83027 0.1757,-0.34795 0.50643,-0.5271 0.33073,-0.18259 0.79582,-0.18259 0.46509,0 0.79582,0.18259 0.33072,0.17915 0.50298,0.5271 0.1757,0.34451 0.1757,0.83027 v 0.59256 q 0,0.4892 -0.1757,0.83715 -0.17226,0.34451 -0.50298,0.5271 -0.33073,0.18259 -0.79582,0.18259 z m 0,-0.66834 q 0.36862,0 0.56844,-0.23083 0.20326,-0.23082 0.20326,-0.64767 v -0.59256 q 0,-0.41686 -0.20326,-0.64423 -0.19982,-0.22738 -0.56844,-0.22738 -0.36863,0 -0.57189,0.22738 -0.19981,0.22737 -0.19981,0.64423 v 0.59256 q 0,0.41685 0.19981,0.64767 0.20326,0.23083 0.57189,0.23083 z"
         style="font-style:normal;font-variant:normal;font-weight:normal;font-stretch:normal;font-size:7.05555534px;line-height:1;font-family:Bahnschrift;-inkscape-font-specification:Bahnschrift;text-align:center;letter-spacing:0px;word-spacing:0px;text-anchor:middle;fill:#000000;fill-opacity:1;stroke:none;stroke-width:0.26458332"
         id="path4646"
         inkscape:connector-curvature="0" />
      <path
         d="m 110.28538,195.39357 h 0.7028 v 3.57601 h -0.7028 z m 2.17041,1.40904 q 0,-0.37896 -0.19637,-0.58566 -0.19637,-0.20671 -0.55122,-0.20671 -0.34451,0 -0.53399,0.18259 -0.18603,0.18259 -0.18603,0.51332 l -0.0724,-0.68902 q 0.16536,-0.32384 0.43064,-0.49954 0.26871,-0.1757 0.59255,-0.1757 0.58222,0 0.89917,0.38241 0.3204,0.37896 0.3204,1.07487 v 2.17041 h -0.7028 z"
         style="font-style:normal;font-variant:normal;font-weight:normal;font-stretch:normal;font-size:7.05555534px;line-height:1;font-family:Bahnschrift;-inkscape-font-specification:Bahnschrift;text-align:center;letter-spacing:0px;word-spacing:0px;text-anchor:middle;fill:#000000;fill-opacity:1;stroke:none;stroke-width:0.26458332"
         id="path4648"
         inkscape:connector-curvature="0" />
      <path
         d="m 115.15674,198.9868 q -0.43408,0 -0.63734,-0.23771 -0.19982,-0.24116 -0.19982,-0.70969 v -3.68625 h 0.7028 v 3.69314 q 0,0.13092 0.0517,0.20326 0.0517,0.0689 0.15158,0.0689 h 0.33762 v 0.66835 z m -1.20578,-3.59323 h 1.6123 v 0.6339 h -1.6123 z"
         style="font-style:normal;font-variant:normal;font-weight:normal;font-stretch:normal;font-size:7.05555534px;line-height:1;font-family:Bahnschrift;-inkscape-font-specification:Bahnschrift;text-align:center;letter-spacing:0px;word-spacing:0px;text-anchor:middle;fill:#000000;fill-opacity:1;stroke:none;stroke-width:0.26458332"
         id="path4650"
         inkscape:connector-curvature="0" />
      <path
         d="m 118.84299,196.84051 v 0.66835 h -2.3151 v -0.66835 z"
         style="font-style:normal;font-variant:normal;font-weight:normal;font-stretch:normal;font-size:7.05555534px;line-height:1;font-family:Bahnschrift;-inkscape-font-specification:Bahnschrift;text-align:center;letter-spacing:0px;word-spacing:0px;text-anchor:middle;fill:#000000;fill-opacity:1;stroke:none;stroke-width:0.26458332"
         id="path4652"
         inkscape:connector-curvature="0" />
      <path
         d="m 119.98676,193.96041 h 0.7028 v 5.00917 h -0.7028 z m 0.34107,4.34082 h 2.87665 v 0.66835 h -2.87665 z m 0,-2.15319 h 2.49769 v 0.66835 h -2.49769 z m 0,-2.18763 h 2.87665 v 0.66835 h -2.87665 z"
         style="font-style:normal;font-variant:normal;font-weight:normal;font-stretch:normal;font-size:7.05555534px;line-height:1;font-family:Bahnschrift;-inkscape-font-specification:Bahnschrift;text-align:center;letter-spacing:0px;word-spacing:0px;text-anchor:middle;fill:#000000;fill-opacity:1;stroke:none;stroke-width:0.26458332"
         id="path4654"
         inkscape:connector-curvature="0" />
      <path
         d="m 124.13466,195.39357 h 0.7028 v 3.57601 h -0.7028 z m 2.17041,1.40904 q 0,-0.37896 -0.19637,-0.58566 -0.19637,-0.20671 -0.55122,-0.20671 -0.34451,0 -0.53399,0.18259 -0.18603,0.18259 -0.18603,0.51332 l -0.0723,-0.68902 q 0.16537,-0.32384 0.43064,-0.49954 0.26872,-0.1757 0.59256,-0.1757 0.58222,0 0.89917,0.38241 0.32039,0.37896 0.32039,1.07487 v 2.17041 h -0.7028 z"
         style="font-style:normal;font-variant:normal;font-weight:normal;font-stretch:normal;font-size:7.05555534px;line-height:1;font-family:Bahnschrift;-inkscape-font-specification:Bahnschrift;text-align:center;letter-spacing:0px;word-spacing:0px;text-anchor:middle;fill:#000000;fill-opacity:1;stroke:none;stroke-width:0.26458332"
         id="path4656"
         inkscape:connector-curvature="0" />
      <path
         d="m 130.10846,193.96041 h 0.7028 v 5.00917 h -0.7028 z m -0.89917,5.07118 q -0.39274,0 -0.6718,-0.16881 -0.2756,-0.17226 -0.4203,-0.49954 -0.14469,-0.32728 -0.14469,-0.78548 v -0.78893 q 0,-0.46164 0.14125,-0.78893 0.14125,-0.32728 0.40996,-0.49609 0.27217,-0.17225 0.65113,-0.17225 0.31694,0 0.57877,0.16536 0.26527,0.16537 0.42719,0.46509 l -0.0723,0.73036 q 0,-0.22738 -0.0827,-0.3893 -0.0827,-0.16192 -0.24115,-0.2446 -0.15503,-0.0861 -0.37896,-0.0861 -0.34796,0 -0.54088,0.21705 -0.18948,0.21704 -0.18948,0.60978 v 0.77859 q 0,0.38929 0.18948,0.60289 0.19292,0.21015 0.54088,0.21015 0.22393,0 0.37896,-0.0861 0.15847,-0.0896 0.24115,-0.25493 0.0827,-0.16537 0.0827,-0.39619 l 0.0482,0.75448 q -0.1068,0.26527 -0.3514,0.44441 -0.24116,0.17915 -0.596,0.17915 z"
         style="font-style:normal;font-variant:normal;font-weight:normal;font-stretch:normal;font-size:7.05555534px;line-height:1;font-family:Bahnschrift;-inkscape-font-specification:Bahnschrift;text-align:center;letter-spacing:0px;word-spacing:0px;text-anchor:middle;fill:#000000;fill-opacity:1;stroke:none;stroke-width:0.26458332"
         id="path4658"
         inkscape:connector-curvature="0" />
      <path
         d="m 134.21157,196.35819 h 1.60197 q 0.22737,0 0.39963,-0.10679 0.17225,-0.1068 0.26527,-0.30317 0.0965,-0.19637 0.0965,-0.45131 v 0 q 0,-0.25838 -0.0965,-0.45475 -0.093,-0.19637 -0.26527,-0.30317 -0.17226,-0.11024 -0.39963,-0.11024 h -1.60197 v -0.66835 h 1.57785 q 0.44786,0 0.78893,0.19292 0.34106,0.18948 0.5271,0.53744 0.18948,0.34795 0.18948,0.80615 v 0 q 0,0.4582 -0.18948,0.80615 -0.18604,0.34451 -0.5271,0.53399 -0.34107,0.18948 -0.78893,0.18948 h -1.57785 z m -0.36174,-2.39778 h 0.7028 v 5.00917 h -0.7028 z"
         style="font-style:normal;font-variant:normal;font-weight:normal;font-stretch:normal;font-size:7.05555534px;line-height:1;font-family:Bahnschrift;-inkscape-font-specification:Bahnschrift;text-align:center;letter-spacing:0px;word-spacing:0px;text-anchor:middle;fill:#000000;fill-opacity:1;stroke:none;stroke-width:0.26458332"
         id="path4660"
         inkscape:connector-curvature="0" />
      <path
         d="m 138.0115,195.39357 h 0.7028 v 3.57601 h -0.7028 z m 1.96715,0.84749 q -0.093,-0.11369 -0.23426,-0.17225 -0.14125,-0.0586 -0.32729,-0.0586 -0.33417,0 -0.52021,0.18604 -0.18259,0.18259 -0.18259,0.50987 l -0.0723,-0.68902 q 0.16536,-0.32039 0.42719,-0.49609 0.26183,-0.17915 0.57877,-0.17915 0.24461,0 0.44098,0.0724 0.19981,0.0689 0.34795,0.2067 z"
         style="font-style:normal;font-variant:normal;font-weight:normal;font-stretch:normal;font-size:7.05555534px;line-height:1;font-family:Bahnschrift;-inkscape-font-specification:Bahnschrift;text-align:center;letter-spacing:0px;word-spacing:0px;text-anchor:middle;fill:#000000;fill-opacity:1;stroke:none;stroke-width:0.26458332"
         id="path4662"
         inkscape:connector-curvature="0" />
      <path
         d="m 142.33165,199.02125 q -0.46508,0 -0.79581,-0.18259 -0.33073,-0.18259 -0.50643,-0.53054 -0.17226,-0.3514 -0.17226,-0.84405 v -0.58222 q 0,-0.48576 0.17226,-0.83027 0.1757,-0.34795 0.50643,-0.5271 0.33073,-0.18259 0.79581,-0.18259 0.46509,0 0.79582,0.18259 0.33073,0.17915 0.50298,0.5271 0.1757,0.34451 0.1757,0.83027 v 0.59256 q 0,0.4892 -0.1757,0.83715 -0.17225,0.34451 -0.50298,0.5271 -0.33073,0.18259 -0.79582,0.18259 z m 0,-0.66834 q 0.36863,0 0.56844,-0.23083 0.20326,-0.23082 0.20326,-0.64767 v -0.59256 q 0,-0.41686 -0.20326,-0.64423 -0.19981,-0.22738 -0.56844,-0.22738 -0.36862,0 -0.57188,0.22738 -0.19982,0.22737 -0.19982,0.64423 v 0.59256 q 0,0.41685 0.19982,0.64767 0.20326,0.23083 0.57188,0.23083 z"
         style="font-style:normal;font-variant:normal;font-weight:normal;font-stretch:normal;font-size:7.05555534px;line-height:1;font-family:Bahnschrift;-inkscape-font-specification:Bahnschrift;text-align:center;letter-spacing:0px;word-spacing:0px;text-anchor:middle;fill:#000000;fill-opacity:1;stroke:none;stroke-width:0.26458332"
         id="path4664"
         inkscape:connector-curvature="0" />
      <path
         d="m 144.32292,199.75506 h 0.39274 q 0.0965,0 0.14814,-0.0724 0.0551,-0.0689 0.0551,-0.19981 v -4.08933 h 0.7028 v 4.08244 q 0,0.4513 -0.22049,0.69935 -0.21704,0.24805 -0.61667,0.24805 h -0.46164 z m 0.58911,-5.79465 h 0.71658 v 0.7028 h -0.71658 z"
         style="font-style:normal;font-variant:normal;font-weight:normal;font-stretch:normal;font-size:7.05555534px;line-height:1;font-family:Bahnschrift;-inkscape-font-specification:Bahnschrift;text-align:center;letter-spacing:0px;word-spacing:0px;text-anchor:middle;fill:#000000;fill-opacity:1;stroke:none;stroke-width:0.26458332"
         id="path4666"
         inkscape:connector-curvature="0" />
      <path
         d="m 148.15731,199.02125 q -0.49609,0 -0.84749,-0.18603 -0.3514,-0.18604 -0.53744,-0.54433 -0.18259,-0.36173 -0.18259,-0.87161 v -0.40307 q 0,-0.53055 0.1757,-0.90606 0.17915,-0.37552 0.51677,-0.57189 0.33762,-0.19637 0.81304,-0.19637 0.44786,0 0.76481,0.22393 0.31695,0.22393 0.48231,0.64768 0.16881,0.42375 0.16881,1.0163 v 0.23427 h -2.41156 v -0.565 h 1.74321 v 0 q -0.031,-0.43752 -0.22737,-0.67868 -0.19293,-0.2446 -0.52021,-0.2446 -0.39963,0 -0.62012,0.26183 -0.21704,0.26182 -0.21704,0.74069 v 0.45475 q 0,0.44442 0.23427,0.68213 0.23426,0.23772 0.6649,0.23772 0.2136,0 0.42375,-0.0861 0.21015,-0.0861 0.37551,-0.24116 v 0 l 0.46165,0.46164 v 0 q -0.26528,0.25494 -0.59601,0.39619 -0.33073,0.1378 -0.6649,0.1378 z"
         style="font-style:normal;font-variant:normal;font-weight:normal;font-stretch:normal;font-size:7.05555534px;line-height:1;font-family:Bahnschrift;-inkscape-font-specification:Bahnschrift;text-align:center;letter-spacing:0px;word-spacing:0px;text-anchor:middle;fill:#000000;fill-opacity:1;stroke:none;stroke-width:0.26458332"
         id="path4668"
         inkscape:connector-curvature="0" />
      <path
         d="m 151.92624,199.02125 q -0.4892,0 -0.83715,-0.18259 -0.34451,-0.18259 -0.5271,-0.53054 -0.18259,-0.34796 -0.18259,-0.8406 v -0.58912 q 0,-0.48575 0.18259,-0.83026 0.18259,-0.34451 0.5271,-0.52366 0.34795,-0.18259 0.83715,-0.18259 0.27906,0 0.52366,0.0689 0.24805,0.0655 0.44442,0.19293 0.19637,0.12747 0.32728,0.31006 v 0 l -0.50643,0.45475 v 0 q -0.15158,-0.17225 -0.35484,-0.26527 -0.20326,-0.093 -0.42375,-0.093 -0.40652,0 -0.63045,0.22738 -0.22393,0.22737 -0.22393,0.64078 v 0.58912 q 0,0.42374 0.22048,0.65456 0.22393,0.23083 0.6339,0.23083 0.22393,0 0.42719,-0.0999 0.20326,-0.0999 0.3514,-0.2825 v 0 l 0.50643,0.4892 v 0 q -0.13436,0.17915 -0.33073,0.30662 -0.19637,0.12402 -0.44442,0.18948 -0.2446,0.0654 -0.52021,0.0654 z"
         style="font-style:normal;font-variant:normal;font-weight:normal;font-stretch:normal;font-size:7.05555534px;line-height:1;font-family:Bahnschrift;-inkscape-font-specification:Bahnschrift;text-align:center;letter-spacing:0px;word-spacing:0px;text-anchor:middle;fill:#000000;fill-opacity:1;stroke:none;stroke-width:0.26458332"
         id="path4670"
         inkscape:connector-curvature="0" />
      <path
         d="m 154.92692,198.9868 q -0.43408,0 -0.63734,-0.23771 -0.19981,-0.24116 -0.19981,-0.70969 v -3.68625 h 0.7028 v 3.69314 q 0,0.13092 0.0517,0.20326 0.0517,0.0689 0.15159,0.0689 h 0.33762 v 0.66835 z m -1.20578,-3.59323 h 1.61231 v 0.6339 h -1.61231 z"
         style="font-style:normal;font-variant:normal;font-weight:normal;font-stretch:normal;font-size:7.05555534px;line-height:1;font-family:Bahnschrift;-inkscape-font-specification:Bahnschrift;text-align:center;letter-spacing:0px;word-spacing:0px;text-anchor:middle;fill:#000000;fill-opacity:1;stroke:none;stroke-width:0.26458332"
         id="path4672"
         inkscape:connector-curvature="0" />
      <path
         d="m 157.56242,199.02125 q -0.31695,0 -0.596,-0.062 -0.27561,-0.062 -0.51676,-0.18603 -0.24116,-0.12403 -0.44442,-0.31006 v 0 l 0.41686,-0.51332 v 0 q 0.28938,0.22049 0.57533,0.33073 0.28594,0.11024 0.56499,0.11024 0.41686,0 0.62356,-0.12747 0.21016,-0.13091 0.21016,-0.38929 0,-0.17226 -0.11369,-0.25839 -0.11369,-0.0861 -0.2825,-0.11368 -0.16881,-0.031 -0.47542,-0.0551 -0.0276,0 -0.0586,0 -0.031,-0.003 -0.0586,-0.007 -0.0138,0 -0.0276,0 -0.0138,-0.003 -0.0276,-0.003 -0.34795,-0.0276 -0.58911,-0.0999 -0.24116,-0.0758 -0.40308,-0.27905 -0.15847,-0.20326 -0.15847,-0.58222 0,-0.37896 0.15503,-0.63045 0.15503,-0.2515 0.46164,-0.37552 0.30661,-0.12747 0.76826,-0.12747 0.27905,0 0.53054,0.0517 0.25494,0.0517 0.48576,0.15503 0.23082,0.0999 0.44442,0.25493 v 0 l -0.42375,0.51332 v 0 q -0.26872,-0.17225 -0.53054,-0.25838 -0.25839,-0.0861 -0.50643,-0.0861 -0.35829,0 -0.53744,0.12403 -0.17914,0.12058 -0.17914,0.36518 0,0.14469 0.0999,0.21704 0.10335,0.0724 0.25838,0.0965 0.15503,0.0241 0.44097,0.0413 0.0207,0.003 0.0413,0.003 0.0241,0 0.0482,0.003 0.0103,0 0.0207,0 0.0103,0 0.0207,0.003 0.37552,0.0241 0.63735,0.0999 0.26527,0.0758 0.44441,0.29972 0.17915,0.22393 0.17915,0.64768 0,0.38585 -0.16537,0.64078 -0.16536,0.2515 -0.49953,0.37897 -0.33073,0.12746 -0.83372,0.12746 z"
         style="font-style:normal;font-variant:normal;font-weight:normal;font-stretch:normal;font-size:7.05555534px;line-height:1;font-family:Bahnschrift;-inkscape-font-specification:Bahnschrift;text-align:center;letter-spacing:0px;word-spacing:0px;text-anchor:middle;fill:#000000;fill-opacity:1;stroke:none;stroke-width:0.26458332"
         id="path4674"
         inkscape:connector-curvature="0" />
    </g>
    <g
       aria-label="CM-TECH"
       style="font-style:normal;font-weight:normal;font-size:15.62613201px;line-height:1.25;font-family:sans-serif;letter-spacing:0px;word-spacing:0px;fill:#000000;fill-opacity:1;stroke:none;stroke-width:0.39065328"
       id="text891">
      <path
         d="m 76.860752,135.53548 q -1.152122,0 -2.029566,-0.5112 -0.869814,-0.51121 -1.3505,-1.44969 -0.480687,-0.93848 -0.480687,-2.17454 v -3.04435 q 0,-1.23605 0.480687,-2.17453 0.480686,-0.93848 1.3505,-1.44969 0.877444,-0.51884 2.029566,-0.51884 0.953744,0 1.754888,0.41202 0.801145,0.40439 1.335241,1.15212 0.541726,0.74774 0.732475,1.732 v 0 h -1.594659 v 0 q -0.144969,-0.51884 -0.488317,-0.92322 -0.335717,-0.41202 -0.793514,-0.63329 -0.457797,-0.22127 -0.946114,-0.22127 -0.679065,0 -1.190271,0.32809 -0.511207,0.32809 -0.793515,0.92322 -0.282308,0.58751 -0.282308,1.37339 v 3.04435 q 0,0.77826 0.282308,1.37339 0.282308,0.59514 0.793515,0.92323 0.511206,0.32046 1.190271,0.32046 0.495947,0 0.946114,-0.20601 0.457797,-0.20601 0.793514,-0.6104 0.343348,-0.40439 0.488317,-0.96137 v 0 h 1.594659 v 0 q -0.190749,0.98426 -0.732475,1.732 -0.541726,0.74773 -1.342871,1.15975 -0.801144,0.40438 -1.747258,0.40438 z"
         style="font-style:normal;font-variant:normal;font-weight:normal;font-stretch:normal;font-family:Bahnschrift;-inkscape-font-specification:Bahnschrift;stroke-width:0.39065328"
         id="path897" />
      <path
         d="m 90.724366,124.32709 h 1.45732 v 11.09395 h -1.518359 v -8.30902 l 0.0763,0.48832 -2.731521,6.27945 h -1.083453 l -2.731521,-6.12685 0.0763,-0.64092 v 8.30902 h -1.51836 v -11.09395 h 1.45732 l 3.257988,7.32475 z"
         style="font-style:normal;font-variant:normal;font-weight:normal;font-stretch:normal;font-family:Bahnschrift;-inkscape-font-specification:Bahnschrift;stroke-width:0.39065328"
         id="path899" />
      <path
         d="m 99.903193,129.28656 v 1.48021 h -5.127325 v -1.48021 z"
         style="font-style:normal;font-variant:normal;font-weight:normal;font-stretch:normal;font-family:Bahnschrift;-inkscape-font-specification:Bahnschrift;stroke-width:0.39065328"
         id="path901" />
      <path
         d="m 104.04625,125.23506 h 1.55651 v 10.18598 h -1.55651 z m -3.1359,-0.90797 h 7.82832 v 1.48021 h -7.82832 z"
         style="font-style:normal;font-variant:normal;font-weight:normal;font-stretch:normal;font-family:Bahnschrift;-inkscape-font-specification:Bahnschrift;stroke-width:0.39065328"
         id="path903" />
      <path
         d="m 110.27992,124.32709 h 1.55651 v 11.09395 h -1.55651 z m 0.75537,9.61374 h 6.371 v 1.48021 h -6.371 z m 0,-4.76872 h 5.53171 v 1.48021 h -5.53171 z m 0,-4.84502 h 6.371 v 1.48021 h -6.371 z"
         style="font-style:normal;font-variant:normal;font-weight:normal;font-stretch:normal;font-family:Bahnschrift;-inkscape-font-specification:Bahnschrift;stroke-width:0.39065328"
         id="path905" />
      <path
         d="m 123.25083,135.53548 q -1.15212,0 -2.02956,-0.5112 -0.86982,-0.51121 -1.3505,-1.44969 -0.48069,-0.93848 -0.48069,-2.17454 v -3.04435 q 0,-1.23605 0.48069,-2.17453 0.48068,-0.93848 1.3505,-1.44969 0.87744,-0.51884 2.02956,-0.51884 0.95375,0 1.75489,0.41202 0.80114,0.40439 1.33524,1.15212 0.54173,0.74774 0.73248,1.732 v 0 h -1.59466 v 0 q -0.14497,-0.51884 -0.48832,-0.92322 -0.33572,-0.41202 -0.79351,-0.63329 -0.4578,-0.22127 -0.94612,-0.22127 -0.67906,0 -1.19027,0.32809 -0.51121,0.32809 -0.79351,0.92322 -0.28231,0.58751 -0.28231,1.37339 v 3.04435 q 0,0.77826 0.28231,1.37339 0.2823,0.59514 0.79351,0.92323 0.51121,0.32046 1.19027,0.32046 0.49595,0 0.94612,-0.20601 0.45779,-0.20601 0.79351,-0.6104 0.34335,-0.40439 0.48832,-0.96137 v 0 h 1.59466 v 0 q -0.19075,0.98426 -0.73248,1.732 -0.54173,0.74773 -1.34287,1.15975 -0.80114,0.40438 -1.74726,0.40438 z"
         style="font-style:normal;font-variant:normal;font-weight:normal;font-stretch:normal;font-family:Bahnschrift;-inkscape-font-specification:Bahnschrift;stroke-width:0.39065328"
         id="path907" />
      <path
         d="M 135.44349,124.32709 H 137 v 11.09395 h -1.55651 z m -6.30234,0 h 1.55651 v 11.09395 h -1.55651 z m 0.96901,4.8908 h 6.15736 v 1.48021 h -6.15736 z"
         style="font-style:normal;font-variant:normal;font-weight:normal;font-stretch:normal;font-family:Bahnschrift;-inkscape-font-specification:Bahnschrift;stroke-width:0.39065328"
         id="path909" />
    </g>
    <path
       style="fill:none;stroke:#000000;stroke-width:1;stroke-linecap:butt;stroke-linejoin:miter;stroke-miterlimit:4;stroke-dasharray:none;stroke-opacity:1"
       d="M 94.983629,141.45908 H 115.01637"
       id="path893"
       inkscape:connector-curvature="0" />
  </g>
</svg>
